PathFileType  4	(X/Y/Z) C:\Users\antoi\Documents\MyRepositories\mobilecap\ResultsAnalysis
DataRate	CameraRate	NumFrames	NumMarkers	Units	OrigDataRate	OrigDataStartFrame	OrigNumFrames
100.0	100.0	6	51	mm	100.0	35	275
Frame#	Time	r_knee			r_shank_antsup			r_ankle			r_calc			r_5meta			r_toe			L_knee			L_shank_antsup			L_ankle			L_calc			L_5meta			L_toe			r_sh2			r_sh3			r_sh4			L_sh2			L_sh3			r_thigh1			r_thigh2			r_thigh3			r_thigh4			r_thigh5			L_thigh1			L_thigh2			L_thigh3			L_thigh4			r.ASIS			r.PSIS			L.ASIS			L.PSIS			C7			R_Shoulder			L_Shoulder			R_Sternum			L_Sternum			R_humerus			R_elbow_med			R_elbow_lat			R_forearm			R_wrist_radius			R_wrist_ulna			L_humerus			L_elbow_med			L_elbow_lat			L_forearm			L_wrist_radius			L_wrist_ulna			R_HJC			L_HJC			R_HJC_reg			L_HJC_reg			
		X1	Y1	Z1	X2	Y2	Z2	X3	Y3	Z3	X4	Y4	Z4	X5	Y5	Z5	X6	Y6	Z6	X7	Y7	Z7	X8	Y8	Z8	X9	Y9	Z9	X10	Y10	Z10	X11	Y11	Z11	X12	Y12	Z12	X13	Y13	Z13	X14	Y14	Z14	X15	Y15	Z15	X16	Y16	Z16	X17	Y17	Z17	X18	Y18	Z18	X19	Y19	Z19	X20	Y20	Z20	X21	Y21	Z21	X22	Y22	Z22	X23	Y23	Z23	X24	Y24	Z24	X25	Y25	Z25	X26	Y26	Z26	X27	Y27	Z27	X28	Y28	Z28	X29	Y29	Z29	X30	Y30	Z30	X31	Y31	Z31	X32	Y32	Z32	X33	Y33	Z33	X34	Y34	Z34	X35	Y35	Z35	X36	Y36	Z36	X37	Y37	Z37	X38	Y38	Z38	X39	Y39	Z39	X40	Y40	Z40	X41	Y41	Z41	X42	Y42	Z42	X43	Y43	Z43	X44	Y44	Z44	X45	Y45	Z45	X46	Y46	Z46	X47	Y47	Z47	X48	Y48	Z48	X49	Y49	Z49	X50	Y50	Z50	X51	Y51	Z51	

35	0.34000000	-1191.58849	779.10523	-417.09992	-1162.40546	666.34373	-435.34824	-1249.70098	395.98008	-455.46275	-1297.88254	358.27858	-505.05198	-1134.99852	348.78026	-420.28368	-1099.95892	367.14080	-464.57474	-1182.81869	781.60183	-743.61804	-1151.25150	677.36088	-702.32891	-1248.67411	397.58185	-731.66351	-1293.71676	365.11324	-695.49953	-1127.91980	347.20643	-744.45301	-1090.98432	367.53161	-690.50080	-1179.20534	557.24312	-446.21519	-1217.61148	668.11950	-382.74744	-1250.81154	563.99715	-404.24944	-1199.26771	703.95910	-771.57283	-1219.67042	584.24805	-783.72109	-1104.95166	1080.92429	-422.58620	-1101.89514	971.66597	-420.95005	-1146.50276	945.17075	-378.18139	-1208.70594	1076.14192	-379.89683	-1200.59866	960.81594	-376.24179	-1109.45208	1067.43282	-749.88133	-1100.75142	933.15309	-746.56316	-1215.00419	1069.62192	-787.79967	-1206.53163	929.00718	-777.08696	-1082.78138	1234.88134	-455.59439	-1255.78699	1308.10388	-527.75172	-1073.41602	1234.26155	-701.97108	-1255.15320	1309.76062	-645.72645	-1191.74545	1756.86792	-580.66513	-1145.45018	1714.05284	-426.62715	-1137.80229	1722.95436	-737.75096	-1078.17543	1692.44599	-558.76812	-1077.23841	1690.75112	-601.72024	-1137.77383	1585.64295	-360.00393	-1226.50424	1403.81874	-410.58386	-1207.24055	1403.84375	-336.87020	-1168.71497	1282.38584	-319.80527	-1147.11549	1179.77444	-322.36559	-1178.19334	1176.89394	-301.89965	-1132.26176	1571.76114	-803.98746	-1220.83618	1393.16799	-753.57114	-1204.41364	1402.08615	-827.50850	-1167.21491	1310.93528	-852.10204	-1146.81540	1178.54519	-847.80487	-1173.18574	1178.16027	-867.11722	-1183.28363	1179.62779	-485.07449	-1173.35707	1175.57398	-674.14839	-1162.98469	1176.55711	-491.38007	-1162.11054	1178.84206	-654.08833	
36	0.35000000	-1190.16027	778.90819	-417.32350	-1161.27971	665.98998	-435.32988	-1249.60820	396.07319	-455.31386	-1297.76338	358.34116	-505.04946	-1135.00383	348.78713	-420.30155	-1099.96567	367.14156	-464.57314	-1181.51225	781.47688	-743.07341	-1150.14145	676.91018	-701.85589	-1248.58112	397.60516	-731.50147	-1293.72420	365.08769	-695.43640	-1127.92377	347.22061	-744.43330	-1090.97872	367.51325	-690.45732	-1178.52841	557.04673	-446.26942	-1216.43097	667.92887	-382.89613	-1250.35148	563.96447	-404.25701	-1198.22008	703.79789	-771.34369	-1218.84583	583.97831	-783.27044	-1104.28028	1080.89539	-422.47549	-1100.90371	971.73685	-420.40857	-1145.58387	944.86435	-378.11852	-1207.99367	1076.00230	-379.56416	-1199.65560	960.65351	-376.12066	-1108.76218	1067.21728	-749.23778	-1099.78821	933.19690	-746.21232	-1214.43391	1069.31203	-787.48496	-1205.60796	928.86272	-776.59546	-1082.32851	1234.34470	-455.72784	-1255.00313	1308.15478	-527.62747	-1072.90969	1234.12191	-701.73714	-1254.37096	1309.79726	-645.44945	-1189.36848	1756.75633	-580.31733	-1143.18813	1713.90048	-426.25749	-1135.52396	1722.66134	-737.50027	-1075.98867	1692.05391	-558.56178	-1075.15181	1690.17012	-601.41653	-1136.14860	1585.35254	-359.89991	-1225.58249	1404.04104	-410.41125	-1206.43576	1403.97423	-336.66573	-1168.54549	1282.33839	-319.42613	-1147.51368	1179.44346	-321.99951	-1178.61060	1176.77275	-301.61262	-1130.61193	1571.42751	-803.93523	-1220.00388	1393.20423	-753.39263	-1203.43330	1402.19569	-827.29835	-1166.92381	1310.94093	-852.08436	-1146.96590	1178.39686	-847.96265	-1173.40364	1178.18847	-867.38758	-1182.87442	1179.37830	-485.08341	-1172.95223	1175.57561	-674.16274	-1162.63605	1176.62417	-491.43935	-1161.76434	1178.88902	-653.90649	
37	0.36000000	-1188.69056	778.63151	-417.59178	-1160.07528	665.55091	-435.38698	-1249.44679	396.28091	-455.21815	-1297.64605	358.33907	-504.84945	-1135.01477	348.79495	-420.29587	-1099.97415	367.16392	-464.57807	-1179.99100	781.03128	-742.37530	-1148.91860	676.43855	-701.43452	-1248.49851	397.66938	-731.54979	-1293.78061	365.01162	-695.24970	-1127.93288	347.22873	-744.41537	-1090.96669	367.52288	-690.44801	-1177.83323	556.92575	-446.33186	-1215.22448	667.85051	-382.98925	-1249.76555	563.63499	-404.42164	-1196.98997	703.66118	-771.03543	-1217.81893	583.70745	-782.57008	-1103.62583	1080.89538	-422.19679	-1099.97201	971.88050	-419.82470	-1144.46855	944.58500	-377.85572	-1207.34563	1075.90046	-378.98405	-1198.67093	960.38905	-375.95186	-1108.14974	1067.23757	-749.04927	-1098.80166	933.23628	-745.90967	-1213.93127	1069.10193	-787.47418	-1204.68925	928.78027	-776.19257	-1081.73056	1233.90203	-455.74387	-1254.14355	1308.20290	-527.44399	-1072.41483	1233.92953	-701.50955	-1253.49105	1309.81623	-645.17814	-1186.99718	1756.53003	-579.91238	-1140.88050	1713.73138	-426.01889	-1133.14120	1722.33546	-737.33775	-1073.69378	1691.63325	-558.30989	-1073.01507	1689.66513	-601.19618	-1134.44341	1585.15503	-359.60257	-1224.76519	1404.12386	-410.23413	-1205.49356	1404.04587	-336.52095	-1168.28381	1282.23726	-319.06592	-1147.78429	1179.15319	-321.70956	-1178.98724	1176.71170	-301.18901	-1128.85085	1571.20117	-803.76995	-1219.15524	1393.31986	-753.47204	-1202.33378	1402.21720	-827.14322	-1166.34389	1310.92126	-852.13812	-1147.03338	1178.23786	-848.12605	-1173.44832	1178.11134	-867.44707	-1182.35102	1179.19122	-484.99119	-1172.49139	1175.52813	-674.07668	-1162.20964	1176.63749	-491.41288	-1161.31017	1178.86154	-653.71696	
38	0.37000000	-1187.20131	778.39559	-417.81340	-1158.81910	665.07775	-435.50428	-1249.27774	396.50203	-455.16346	-1297.66229	358.26274	-504.70684	-1135.02126	348.81024	-420.27556	-1099.98163	367.18792	-464.59367	-1178.53928	780.69973	-742.02141	-1147.63418	676.00927	-701.07109	-1248.41050	397.74303	-731.64151	-1293.86682	364.91402	-695.02082	-1127.94085	347.23422	-744.40071	-1090.95785	367.53563	-690.44440	-1177.07417	556.70132	-446.44827	-1214.00767	667.70155	-383.23559	-1248.70027	563.31231	-404.71492	-1195.42588	703.45193	-770.55127	-1216.73006	583.59042	-782.01343	-1102.88559	1080.87020	-421.85390	-1098.93658	972.00931	-419.58487	-1143.34487	944.40196	-377.65713	-1206.61159	1075.61022	-378.70867	-1197.70193	960.02541	-375.86910	-1107.52883	1067.35025	-749.17613	-1097.55397	933.08658	-745.70259	-1213.50060	1068.87517	-787.38208	-1203.67156	928.40342	-775.80900	-1080.94806	1233.57892	-455.49452	-1253.20095	1308.23050	-527.12599	-1071.84116	1233.59953	-701.28254	-1252.59785	1309.84885	-644.93636	-1184.50541	1756.32460	-579.70164	-1138.54641	1713.44615	-425.91981	-1130.74500	1721.97181	-737.13349	-1071.36167	1691.08645	-558.07942	-1070.71795	1689.21874	-601.13174	-1132.61847	1584.92681	-359.30161	-1224.20960	1403.99653	-409.98763	-1204.40202	1404.06831	-336.42044	-1167.92960	1282.11129	-318.77898	-1147.99398	1178.97429	-321.31681	-1179.33915	1176.95074	-300.40126	-1126.97633	1571.02207	-803.49116	-1217.95893	1393.49558	-753.59118	-1201.11356	1402.25718	-827.07681	-1165.48652	1310.84973	-852.29092	-1146.95447	1178.07249	-848.31532	-1173.38805	1177.99636	-867.43723	-1181.70441	1179.08533	-484.71849	-1171.95367	1175.39109	-673.80901	-1161.59606	1176.47436	-491.13406	-1160.76503	1178.70408	-653.44795	
39	0.38000000	-1185.67368	778.15034	-418.00635	-1157.54722	664.67520	-435.57700	-1249.17359	396.60193	-455.12817	-1297.78683	358.20216	-504.78808	-1135.02462	348.80739	-420.27439	-1099.99475	367.18899	-464.60513	-1177.14440	780.69842	-741.90384	-1146.34735	675.60098	-700.63746	-1248.31616	397.78103	-731.60753	-1293.92442	364.84262	-694.85722	-1127.94466	347.24273	-744.38641	-1090.94602	367.53707	-690.42534	-1176.27143	556.29462	-446.60447	-1212.75249	667.47728	-383.44358	-1247.60589	563.19315	-405.11979	-1193.87486	703.25897	-770.13246	-1215.77197	583.61790	-781.79355	-1102.07956	1080.76912	-421.54728	-1097.80963	971.89555	-419.85124	-1142.34424	944.24034	-377.62585	-1205.93548	1075.12137	-378.66867	-1196.68814	959.64181	-375.82544	-1106.86377	1067.36882	-749.28117	-1095.97133	932.78010	-745.46771	-1213.16061	1068.68107	-787.29932	-1202.61886	927.80421	-775.51100	-1080.08872	1233.21604	-455.16180	-1252.22770	1308.25044	-526.75922	-1071.18176	1233.18429	-701.09643	-1251.71584	1309.86381	-644.67418	-1181.87342	1756.20164	-579.56244	-1136.11395	1713.08180	-425.73896	-1128.30864	1721.62432	-736.74343	-1069.02506	1690.44420	-557.88536	-1068.26159	1688.65729	-600.89862	-1130.70858	1584.57835	-359.13395	-1223.83146	1403.80570	-409.58594	-1203.22359	1404.05812	-336.23911	-1167.46347	1281.94773	-318.53631	-1148.16358	1178.77120	-320.91049	-1179.60141	1177.38568	-299.50890	-1125.04603	1570.68580	-803.28263	-1216.18039	1393.50404	-753.18753	-1199.80160	1402.31547	-826.95440	-1164.53606	1310.69300	-852.32100	-1146.71484	1177.79155	-848.38244	-1173.18159	1177.90939	-867.44755	-1181.01189	1178.95810	-484.40272	-1171.38937	1175.20460	-673.49863	-1160.91122	1176.24154	-490.75804	-1160.20604	1178.46370	-653.16450	
40	0.39000000	-1184.06546	777.81254	-418.19685	-1156.24288	664.29799	-435.68203	-1249.17199	396.56059	-455.17361	-1297.88479	358.21273	-504.94904	-1135.04169	348.77178	-420.27884	-1099.99950	367.18705	-464.60192	-1175.49942	780.60461	-741.49034	-1145.01983	675.11952	-700.19014	-1248.22932	397.79802	-731.46474	-1293.96753	364.76495	-694.66630	-1127.94954	347.25946	-744.37631	-1090.94745	367.54054	-690.41190	-1175.46456	555.77579	-446.72944	-1211.49738	667.20673	-383.65719	-1246.94058	563.28292	-405.50043	-1192.52721	703.11213	-769.78768	-1214.95481	583.66363	-781.76030	-1101.32102	1080.63761	-421.21668	-1096.72681	971.62301	-420.12512	-1141.34499	944.04480	-377.63680	-1205.67558	1074.77023	-378.21984	-1195.54451	959.25098	-375.77283	-1106.20118	1067.28990	-749.29277	-1094.63402	932.57148	-745.22797	-1212.84481	1068.53452	-787.37541	-1201.57032	927.36058	-775.29416	-1079.19464	1232.75035	-454.90220	-1251.23053	1308.30391	-526.48354	-1070.53318	1232.76660	-700.95156	-1250.80681	1309.84496	-644.32434	-1179.22980	1756.06301	-579.16057	-1133.54192	1712.77096	-425.38602	-1125.76152	1721.33747	-736.33053	-1066.61203	1689.81672	-557.63573	-1065.72104	1687.97396	-600.41019	-1128.70945	1584.21358	-358.92849	-1223.05838	1403.74246	-409.20847	-1202.01093	1404.02123	-335.98319	-1166.90158	1281.73216	-318.31524	-1148.24897	1178.47325	-320.56548	-1179.69926	1177.61244	-298.94908	-1123.05566	1570.18943	-803.09812	-1214.53532	1393.27387	-752.53666	-1198.35919	1402.23547	-826.59826	-1163.57599	1310.44950	-852.14105	-1146.33954	1177.42018	-848.33349	-1172.70289	1177.80789	-867.46473	-1180.30827	1178.78549	-484.13595	-1170.84795	1175.01713	-673.23975	-1160.26074	1176.08560	-490.42034	-1159.67679	1178.21033	-652.89872	
